<?xml version="1.0" encoding="UTF-8"?>
<svg xmlns="http://www.w3.org/2000/svg" version="1.0"
 width="383pt" height="96pt" viewBox="0 0 383 96"
 preserveAspectRatio="xMidYMid meet">
<g transform="translate(0.000000,96.000000) scale(0.100000,-0.100000)"
 fill="#1F2447" stroke="none">
<path d="M95 948 c-15 -41 -93 -534 -86 -541 4 -4 170 -7 367 -5 355 3 359 3
399 26 54 32 77 66 83 123 6 68 -3 94 -43 119 l-36 22 38 19 c98 50 111 168
24 221 -35 23 -42 23 -389 26 -282 2 -353 0 -357 -10z m576 -118 c25 -14 24
-45 -1 -70 -19 -19 -33 -20 -216 -20 l-197 0 7 38 c3 20 6 43 6 50 0 16 371
18 401 2z m-27 -206 c21 -8 20 -52 -1 -76 -15 -16 -35 -18 -220 -18 l-205 0 7
43 c4 23 9 45 12 50 5 8 384 10 407 1z"/>
<path d="M1144 949 c-95 -28 -178 -121 -193 -218 -20 -128 44 -251 159 -305
42 -20 61 -21 295 -21 242 0 252 1 297 23 63 31 132 109 148 166 16 59 9 160
-15 210 -24 49 -74 99 -128 128 -40 22 -54 23 -287 25 -135 1 -259 -2 -276 -8z
m512 -202 c26 -30 32 -83 14 -118 -23 -43 -58 -49 -265 -49 -207 0 -242 6
-265 49 -20 39 -12 91 20 122 l30 30 221 -3 221 -3 24 -28z"/>
<path d="M2100 945 c-25 -8 -65 -31 -88 -51 -154 -131 -128 -367 52 -462 l51
-27 250 0 250 0 57 28 c126 62 183 194 144 332 -23 79 -100 156 -176 179 -72
21 -472 22 -540 1z m499 -179 c56 -29 66 -99 22 -148 l-29 -33 -199 -3 c-125
-2 -212 1 -235 8 -80 23 -91 135 -17 176 36 20 419 19 458 0z"/>
<path d="M2976 938 c-22 -21 -29 -48 -65 -256 -44 -250 -44 -266 5 -278 40
-10 107 3 125 24 9 11 25 79 38 158 13 77 27 143 31 148 5 4 94 -64 198 -153
105 -88 202 -165 217 -171 38 -14 128 -12 150 4 15 10 27 63 62 256 39 223 42
246 28 267 -13 19 -24 23 -69 23 -89 0 -98 -12 -126 -184 -13 -80 -28 -146
-32 -146 -5 0 -86 64 -181 143 -246 204 -220 187 -293 187 -51 0 -67 -4 -88
-22z"/>
<path d="M3075.06640625 155.1640625H3140.7890625Q3160.22265625 155.1640625 3172.185546875 149.890625Q3184.1484375 144.6171875 3191.9609375 134.75390625Q3199.7734375 124.890625 3203.2890625 111.8046875Q3206.8046875 98.71875 3206.8046875 84.0703125Q3206.8046875 61.12109375 3201.580078125 48.474609375Q3196.35546875 35.828125 3187.078125 27.283203125Q3177.80078125 18.73828125 3167.15625 15.90625Q3152.60546875 12.0 3140.7890625 12.0H3075.06640625ZM3119.3046875 122.7421875V44.51953125H3130.14453125Q3144.01171875 44.51953125 3149.87109375 47.595703125Q3155.73046875 50.671875 3159.05078125 58.337890625Q3162.37109375 66.00390625 3162.37109375 83.19140625Q3162.37109375 105.9453125 3154.94921875 114.34375Q3147.52734375 122.7421875 3130.33984375 122.7421875Z"/>
<path d="M3324.1328125 35.6328125H3273.7421875L3266.80859375 12.0H3221.59375L3275.40234375 155.1640625H3323.64453125L3377.453125 12.0H3331.1640625ZM3314.85546875 66.58984375 3299.03515625 118.0546875 3283.3125 66.58984375Z"/>
<path d="M3389.8984375 59.36328125 3431.98828125 62.0Q3433.35546875 51.74609375 3437.5546875 46.375Q3444.390625 37.68359375 3457.0859375 37.68359375Q3466.55859375 37.68359375 3471.685546875 42.126953125Q3476.8125 46.5703125 3476.8125 52.4296875Q3476.8125 57.99609375 3471.9296875 62.390625Q3467.046875 66.78515625 3449.2734375 70.69140625Q3420.171875 77.234375 3407.76953125 88.07421875Q3395.26953125 98.9140625 3395.26953125 115.7109375Q3395.26953125 126.74609375 3401.666015625 136.560546875Q3408.0625 146.375 3420.904296875 151.990234375Q3433.74609375 157.60546875 3456.109375 157.60546875Q3483.55078125 157.60546875 3497.955078125 147.400390625Q3512.359375 137.1953125 3515.09375 114.9296875L3473.39453125 112.48828125Q3471.734375 122.15625 3466.412109375 126.55078125Q3461.08984375 130.9453125 3451.71484375 130.9453125Q3444.0 130.9453125 3440.09375 127.673828125Q3436.1875 124.40234375 3436.1875 119.71484375Q3436.1875 116.296875 3439.41015625 113.5625Q3442.53515625 110.73046875 3454.25390625 108.2890625Q3483.2578125 102.0390625 3495.806640625 95.642578125Q3508.35546875 89.24609375 3514.068359375 79.7734375Q3519.78125 70.30078125 3519.78125 58.58203125Q3519.78125 44.8125 3512.1640625 33.19140625Q3504.546875 21.5703125 3490.875 15.564453125Q3477.203125 9.55859375 3456.40234375 9.55859375Q3419.87890625 9.55859375 3405.81640625 23.62109375Q3391.75390625 37.68359375 3389.8984375 59.36328125Z"/>
<path d="M3548.2421875 155.1640625H3592.48046875V105.06640625H3640.8203125V155.1640625H3685.25390625V12.0H3640.8203125V69.91015625H3592.48046875V12.0H3548.2421875Z"/>
</g>
</svg>
